<mxfile host="app.diagrams.net" modified="2021-02-20T21:17:56.119Z" agent="5.0 (Macintosh; Intel Mac OS X 10_14_6) AppleWebKit/537.36 (KHTML, like Gecko) Chrome/88.0.4324.150 Safari/537.36" etag="3dx65HxseDY0Zu9tSwz_" version="14.4.2" type="github">
  <diagram name="Page-1" id="5f0bae14-7c28-e335-631c-24af17079c00">
    <mxGraphModel dx="946" dy="557" grid="1" gridSize="10" guides="1" tooltips="1" connect="1" arrows="1" fold="1" page="1" pageScale="1" pageWidth="1100" pageHeight="850" background="#ffffff" math="0" shadow="0">
      <root>
        <mxCell id="0" />
        <mxCell id="1" parent="0" />
        <mxCell id="hPJNeQcR5pb7TXHDENTw-27" style="edgeStyle=orthogonalEdgeStyle;rounded=0;orthogonalLoop=1;jettySize=auto;html=1;entryX=1;entryY=0.5;entryDx=0;entryDy=0;dashed=1;" edge="1" parent="1" source="hPJNeQcR5pb7TXHDENTw-1" target="hPJNeQcR5pb7TXHDENTw-12">
          <mxGeometry relative="1" as="geometry" />
        </mxCell>
        <mxCell id="hPJNeQcR5pb7TXHDENTw-1" value="«Component»&lt;br&gt;&lt;b&gt;School Database&lt;/b&gt;" style="html=1;dropTarget=0;" vertex="1" parent="1">
          <mxGeometry x="450" y="300" width="180" height="90" as="geometry" />
        </mxCell>
        <mxCell id="hPJNeQcR5pb7TXHDENTw-2" value="" style="shape=module;jettyWidth=8;jettyHeight=4;" vertex="1" parent="hPJNeQcR5pb7TXHDENTw-1">
          <mxGeometry x="1" width="20" height="20" relative="1" as="geometry">
            <mxPoint x="-27" y="7" as="offset" />
          </mxGeometry>
        </mxCell>
        <mxCell id="hPJNeQcR5pb7TXHDENTw-20" style="edgeStyle=orthogonalEdgeStyle;rounded=0;orthogonalLoop=1;jettySize=auto;html=1;entryX=0;entryY=0.25;entryDx=0;entryDy=0;dashed=1;" edge="1" parent="1" source="hPJNeQcR5pb7TXHDENTw-4" target="hPJNeQcR5pb7TXHDENTw-12">
          <mxGeometry relative="1" as="geometry" />
        </mxCell>
        <object label="Student" id="hPJNeQcR5pb7TXHDENTw-4">
          <mxCell style="shape=umlActor;verticalLabelPosition=bottom;verticalAlign=top;html=1;" vertex="1" parent="1">
            <mxGeometry x="80" y="240" width="30" height="60" as="geometry" />
          </mxCell>
        </object>
        <mxCell id="hPJNeQcR5pb7TXHDENTw-9" style="edgeStyle=orthogonalEdgeStyle;rounded=0;orthogonalLoop=1;jettySize=auto;html=1;entryX=1;entryY=0.5;entryDx=0;entryDy=0;dashed=1;" edge="1" parent="1" source="hPJNeQcR5pb7TXHDENTw-7" target="hPJNeQcR5pb7TXHDENTw-1">
          <mxGeometry relative="1" as="geometry" />
        </mxCell>
        <mxCell id="hPJNeQcR5pb7TXHDENTw-7" value="Admin" style="shape=umlActor;verticalLabelPosition=bottom;verticalAlign=top;html=1;" vertex="1" parent="1">
          <mxGeometry x="740" y="315" width="30" height="60" as="geometry" />
        </mxCell>
        <mxCell id="hPJNeQcR5pb7TXHDENTw-21" style="edgeStyle=orthogonalEdgeStyle;rounded=0;orthogonalLoop=1;jettySize=auto;html=1;entryX=-0.009;entryY=0.445;entryDx=0;entryDy=0;entryPerimeter=0;dashed=1;" edge="1" parent="1" source="hPJNeQcR5pb7TXHDENTw-8" target="hPJNeQcR5pb7TXHDENTw-12">
          <mxGeometry relative="1" as="geometry" />
        </mxCell>
        <mxCell id="hPJNeQcR5pb7TXHDENTw-8" value="Teacher" style="shape=umlActor;verticalLabelPosition=bottom;verticalAlign=top;html=1;" vertex="1" parent="1">
          <mxGeometry x="80" y="360" width="30" height="60" as="geometry" />
        </mxCell>
        <mxCell id="hPJNeQcR5pb7TXHDENTw-12" value="&lt;p style=&quot;margin: 0px ; margin-top: 6px ; text-align: center&quot;&gt;&lt;b&gt;Web-based planning tool&lt;/b&gt;&lt;/p&gt;" style="align=left;overflow=fill;html=1;dropTarget=0;" vertex="1" parent="1">
          <mxGeometry x="190" y="290" width="230" height="110" as="geometry" />
        </mxCell>
        <mxCell id="hPJNeQcR5pb7TXHDENTw-13" value="" style="shape=component;jettyWidth=8;jettyHeight=4;" vertex="1" parent="hPJNeQcR5pb7TXHDENTw-12">
          <mxGeometry x="1" width="20" height="20" relative="1" as="geometry">
            <mxPoint x="-24" y="4" as="offset" />
          </mxGeometry>
        </mxCell>
        <mxCell id="hPJNeQcR5pb7TXHDENTw-24" style="edgeStyle=orthogonalEdgeStyle;rounded=0;orthogonalLoop=1;jettySize=auto;html=1;dashed=1;" edge="1" parent="1" source="hPJNeQcR5pb7TXHDENTw-14" target="hPJNeQcR5pb7TXHDENTw-1">
          <mxGeometry relative="1" as="geometry">
            <Array as="points">
              <mxPoint x="510" y="410" />
              <mxPoint x="540" y="410" />
            </Array>
          </mxGeometry>
        </mxCell>
        <mxCell id="hPJNeQcR5pb7TXHDENTw-14" value="«Component»&lt;br&gt;&lt;b&gt;Teachers&lt;/b&gt;" style="html=1;dropTarget=0;" vertex="1" parent="1">
          <mxGeometry x="450" y="420" width="120" height="60" as="geometry" />
        </mxCell>
        <mxCell id="hPJNeQcR5pb7TXHDENTw-15" value="" style="shape=module;jettyWidth=8;jettyHeight=4;" vertex="1" parent="hPJNeQcR5pb7TXHDENTw-14">
          <mxGeometry x="1" width="20" height="20" relative="1" as="geometry">
            <mxPoint x="-27" y="7" as="offset" />
          </mxGeometry>
        </mxCell>
        <mxCell id="hPJNeQcR5pb7TXHDENTw-26" style="edgeStyle=orthogonalEdgeStyle;rounded=0;orthogonalLoop=1;jettySize=auto;html=1;entryX=0.75;entryY=1;entryDx=0;entryDy=0;dashed=1;" edge="1" parent="1" source="hPJNeQcR5pb7TXHDENTw-16" target="hPJNeQcR5pb7TXHDENTw-1">
          <mxGeometry relative="1" as="geometry">
            <Array as="points">
              <mxPoint x="790" y="410" />
              <mxPoint x="585" y="410" />
            </Array>
          </mxGeometry>
        </mxCell>
        <mxCell id="hPJNeQcR5pb7TXHDENTw-16" value="«Component»&lt;br&gt;&lt;b&gt;Students&lt;/b&gt;" style="html=1;dropTarget=0;" vertex="1" parent="1">
          <mxGeometry x="730" y="420" width="120" height="60" as="geometry" />
        </mxCell>
        <mxCell id="hPJNeQcR5pb7TXHDENTw-17" value="" style="shape=module;jettyWidth=8;jettyHeight=4;" vertex="1" parent="hPJNeQcR5pb7TXHDENTw-16">
          <mxGeometry x="1" width="20" height="20" relative="1" as="geometry">
            <mxPoint x="-27" y="7" as="offset" />
          </mxGeometry>
        </mxCell>
        <mxCell id="hPJNeQcR5pb7TXHDENTw-25" style="edgeStyle=orthogonalEdgeStyle;rounded=0;orthogonalLoop=1;jettySize=auto;html=1;entryX=0.617;entryY=1;entryDx=0;entryDy=0;entryPerimeter=0;dashed=1;" edge="1" parent="1" source="hPJNeQcR5pb7TXHDENTw-18" target="hPJNeQcR5pb7TXHDENTw-1">
          <mxGeometry relative="1" as="geometry">
            <Array as="points">
              <mxPoint x="650" y="410" />
              <mxPoint x="561" y="410" />
            </Array>
          </mxGeometry>
        </mxCell>
        <mxCell id="hPJNeQcR5pb7TXHDENTw-18" value="«Component»&lt;br&gt;&lt;b&gt;Subjects&lt;/b&gt;" style="html=1;dropTarget=0;" vertex="1" parent="1">
          <mxGeometry x="590" y="420" width="120" height="60" as="geometry" />
        </mxCell>
        <mxCell id="hPJNeQcR5pb7TXHDENTw-19" value="" style="shape=module;jettyWidth=8;jettyHeight=4;" vertex="1" parent="hPJNeQcR5pb7TXHDENTw-18">
          <mxGeometry x="1" width="20" height="20" relative="1" as="geometry">
            <mxPoint x="-27" y="7" as="offset" />
          </mxGeometry>
        </mxCell>
      </root>
    </mxGraphModel>
  </diagram>
</mxfile>
